<mxfile host="app.diagrams.net" modified="2023-02-21T03:47:07.266Z" agent="5.0 (Windows NT 10.0; Win64; x64) AppleWebKit/537.36 (KHTML, like Gecko) Chrome/110.0.0.0 Safari/537.36" etag="vPQxZJJQrweJmkTvHQmX" version="20.8.21" type="github">
  <diagram name="Trang-1" id="iTkCjZ6pby2LIXMSkNtQ">
    <mxGraphModel dx="2100" dy="1082" grid="0" gridSize="10" guides="1" tooltips="1" connect="1" arrows="1" fold="1" page="1" pageScale="1" pageWidth="827" pageHeight="1169" math="0" shadow="0">
      <root>
        <mxCell id="0" />
        <mxCell id="1" parent="0" />
        <mxCell id="XZiMIYnPhVow6Gjofia4-8" style="edgeStyle=orthogonalEdgeStyle;rounded=0;orthogonalLoop=1;jettySize=auto;html=1;exitX=0.75;exitY=0;exitDx=0;exitDy=0;entryX=0.75;entryY=1;entryDx=0;entryDy=0;fontSize=21;" edge="1" parent="1" source="XZiMIYnPhVow6Gjofia4-1" target="XZiMIYnPhVow6Gjofia4-2">
          <mxGeometry relative="1" as="geometry" />
        </mxCell>
        <mxCell id="XZiMIYnPhVow6Gjofia4-1" value="Quản Lý Thư Viện" style="rounded=0;whiteSpace=wrap;html=1;fontSize=21;" vertex="1" parent="1">
          <mxGeometry x="589" y="381" width="440" height="330" as="geometry" />
        </mxCell>
        <mxCell id="XZiMIYnPhVow6Gjofia4-6" style="edgeStyle=orthogonalEdgeStyle;rounded=0;orthogonalLoop=1;jettySize=auto;html=1;fontSize=21;entryX=0.25;entryY=0;entryDx=0;entryDy=0;" edge="1" parent="1" target="XZiMIYnPhVow6Gjofia4-1">
          <mxGeometry relative="1" as="geometry">
            <mxPoint x="699" y="227" as="sourcePoint" />
            <Array as="points">
              <mxPoint x="699" y="211" />
              <mxPoint x="699" y="211" />
            </Array>
          </mxGeometry>
        </mxCell>
        <mxCell id="XZiMIYnPhVow6Gjofia4-2" value="Nhân Viên" style="rounded=1;whiteSpace=wrap;html=1;fontSize=21;" vertex="1" parent="1">
          <mxGeometry x="619" y="87" width="402" height="131" as="geometry" />
        </mxCell>
        <mxCell id="XZiMIYnPhVow6Gjofia4-9" value="SInh Viên" style="ellipse;whiteSpace=wrap;html=1;fontSize=21;" vertex="1" parent="1">
          <mxGeometry x="95" y="474" width="264" height="126" as="geometry" />
        </mxCell>
        <mxCell id="XZiMIYnPhVow6Gjofia4-10" value="Nhà Cung Cấp" style="ellipse;whiteSpace=wrap;html=1;fontSize=21;" vertex="1" parent="1">
          <mxGeometry x="1279" y="456" width="303" height="162" as="geometry" />
        </mxCell>
        <mxCell id="XZiMIYnPhVow6Gjofia4-11" value="Ban GIám Hiệu" style="ellipse;whiteSpace=wrap;html=1;fontSize=21;" vertex="1" parent="1">
          <mxGeometry x="626" y="889" width="326" height="139" as="geometry" />
        </mxCell>
        <mxCell id="XZiMIYnPhVow6Gjofia4-14" value="" style="endArrow=classic;html=1;rounded=0;fontSize=21;entryX=0;entryY=0.5;entryDx=0;entryDy=0;exitX=1;exitY=0.5;exitDx=0;exitDy=0;startArrow=none;" edge="1" parent="1" source="XZiMIYnPhVow6Gjofia4-51" target="XZiMIYnPhVow6Gjofia4-1">
          <mxGeometry width="50" height="50" relative="1" as="geometry">
            <mxPoint x="667" y="628" as="sourcePoint" />
            <mxPoint x="717" y="578" as="targetPoint" />
          </mxGeometry>
        </mxCell>
        <mxCell id="XZiMIYnPhVow6Gjofia4-15" value="" style="endArrow=classic;html=1;rounded=0;fontSize=21;exitX=0.977;exitY=0.304;exitDx=0;exitDy=0;exitPerimeter=0;entryX=0;entryY=0.25;entryDx=0;entryDy=0;startArrow=none;" edge="1" parent="1" source="XZiMIYnPhVow6Gjofia4-48" target="XZiMIYnPhVow6Gjofia4-1">
          <mxGeometry width="50" height="50" relative="1" as="geometry">
            <mxPoint x="667" y="628" as="sourcePoint" />
            <mxPoint x="717" y="578" as="targetPoint" />
          </mxGeometry>
        </mxCell>
        <mxCell id="XZiMIYnPhVow6Gjofia4-16" value="" style="endArrow=classic;html=1;rounded=0;fontSize=21;startArrow=none;" edge="1" parent="1">
          <mxGeometry width="50" height="50" relative="1" as="geometry">
            <mxPoint x="521" y="600" as="sourcePoint" />
            <mxPoint x="593" y="629" as="targetPoint" />
          </mxGeometry>
        </mxCell>
        <mxCell id="XZiMIYnPhVow6Gjofia4-17" value="" style="endArrow=classic;html=1;rounded=0;fontSize=21;entryX=0.5;entryY=0;entryDx=0;entryDy=0;startArrow=none;" edge="1" parent="1" target="XZiMIYnPhVow6Gjofia4-10">
          <mxGeometry width="50" height="50" relative="1" as="geometry">
            <mxPoint x="1276" y="464" as="sourcePoint" />
            <mxPoint x="717" y="578" as="targetPoint" />
          </mxGeometry>
        </mxCell>
        <mxCell id="XZiMIYnPhVow6Gjofia4-18" value="" style="endArrow=classic;html=1;rounded=0;fontSize=21;exitX=0.51;exitY=1.011;exitDx=0;exitDy=0;entryX=0.271;entryY=0.073;entryDx=0;entryDy=0;entryPerimeter=0;startArrow=none;exitPerimeter=0;" edge="1" parent="1" source="XZiMIYnPhVow6Gjofia4-41" target="XZiMIYnPhVow6Gjofia4-11">
          <mxGeometry width="50" height="50" relative="1" as="geometry">
            <mxPoint x="667" y="628" as="sourcePoint" />
            <mxPoint x="591" y="848" as="targetPoint" />
          </mxGeometry>
        </mxCell>
        <mxCell id="XZiMIYnPhVow6Gjofia4-19" value="" style="endArrow=classic;html=1;rounded=0;fontSize=21;entryX=0.7;entryY=1.024;entryDx=0;entryDy=0;startArrow=none;entryPerimeter=0;" edge="1" parent="1" target="XZiMIYnPhVow6Gjofia4-1">
          <mxGeometry width="50" height="50" relative="1" as="geometry">
            <mxPoint x="897" y="786" as="sourcePoint" />
            <mxPoint x="717" y="578" as="targetPoint" />
          </mxGeometry>
        </mxCell>
        <mxCell id="XZiMIYnPhVow6Gjofia4-20" value="" style="endArrow=classic;html=1;rounded=0;fontSize=21;startArrow=none;" edge="1" parent="1" source="XZiMIYnPhVow6Gjofia4-35">
          <mxGeometry width="50" height="50" relative="1" as="geometry">
            <mxPoint x="1279" y="531" as="sourcePoint" />
            <mxPoint x="1021" y="531" as="targetPoint" />
          </mxGeometry>
        </mxCell>
        <mxCell id="XZiMIYnPhVow6Gjofia4-21" value="" style="endArrow=classic;html=1;rounded=0;fontSize=21;startArrow=none;" edge="1" parent="1">
          <mxGeometry width="50" height="50" relative="1" as="geometry">
            <mxPoint x="1127" y="584" as="sourcePoint" />
            <mxPoint x="1025" y="584" as="targetPoint" />
            <Array as="points" />
          </mxGeometry>
        </mxCell>
        <mxCell id="XZiMIYnPhVow6Gjofia4-22" value="" style="endArrow=classic;html=1;rounded=0;fontSize=21;entryX=1;entryY=0.75;entryDx=0;entryDy=0;startArrow=none;" edge="1" parent="1" target="XZiMIYnPhVow6Gjofia4-1">
          <mxGeometry width="50" height="50" relative="1" as="geometry">
            <mxPoint x="1076" y="629" as="sourcePoint" />
            <mxPoint x="717" y="578" as="targetPoint" />
            <Array as="points" />
          </mxGeometry>
        </mxCell>
        <mxCell id="XZiMIYnPhVow6Gjofia4-24" value="" style="endArrow=classic;html=1;rounded=0;fontSize=21;startArrow=none;" edge="1" parent="1">
          <mxGeometry width="50" height="50" relative="1" as="geometry">
            <mxPoint x="1290" y="381" as="sourcePoint" />
            <mxPoint x="1455" y="464" as="targetPoint" />
            <Array as="points">
              <mxPoint x="1455" y="381" />
            </Array>
          </mxGeometry>
        </mxCell>
        <mxCell id="XZiMIYnPhVow6Gjofia4-25" value="" style="endArrow=classic;html=1;rounded=0;fontSize=21;entryX=0.33;entryY=0.025;entryDx=0;entryDy=0;entryPerimeter=0;startArrow=none;" edge="1" parent="1" target="XZiMIYnPhVow6Gjofia4-9">
          <mxGeometry width="50" height="50" relative="1" as="geometry">
            <mxPoint x="318" y="381" as="sourcePoint" />
            <mxPoint x="231" y="373" as="targetPoint" />
            <Array as="points">
              <mxPoint x="182" y="381" />
            </Array>
          </mxGeometry>
        </mxCell>
        <mxCell id="XZiMIYnPhVow6Gjofia4-26" value="" style="endArrow=classic;html=1;rounded=0;fontSize=21;entryX=0.317;entryY=0.965;entryDx=0;entryDy=0;entryPerimeter=0;startArrow=none;" edge="1" parent="1" target="XZiMIYnPhVow6Gjofia4-9">
          <mxGeometry width="50" height="50" relative="1" as="geometry">
            <mxPoint x="287" y="711" as="sourcePoint" />
            <mxPoint x="108" y="701" as="targetPoint" />
            <Array as="points">
              <mxPoint x="179" y="711" />
            </Array>
          </mxGeometry>
        </mxCell>
        <mxCell id="XZiMIYnPhVow6Gjofia4-27" value="Xử Lý Vi Phạm" style="text;html=1;align=center;verticalAlign=middle;resizable=0;points=[];autosize=1;strokeColor=none;fillColor=none;fontSize=21;" vertex="1" parent="1">
          <mxGeometry x="919" y="270" width="159" height="37" as="geometry" />
        </mxCell>
        <mxCell id="XZiMIYnPhVow6Gjofia4-29" value="Vi Phạm" style="text;html=1;align=center;verticalAlign=middle;resizable=0;points=[];autosize=1;strokeColor=none;fillColor=none;fontSize=21;" vertex="1" parent="1">
          <mxGeometry x="601" y="267" width="97" height="37" as="geometry" />
        </mxCell>
        <mxCell id="XZiMIYnPhVow6Gjofia4-34" value="" style="endArrow=none;html=1;rounded=0;fontSize=21;exitX=0.09;exitY=0.793;exitDx=0;exitDy=0;exitPerimeter=0;" edge="1" parent="1" source="XZiMIYnPhVow6Gjofia4-10" target="XZiMIYnPhVow6Gjofia4-33">
          <mxGeometry width="50" height="50" relative="1" as="geometry">
            <mxPoint x="1306" y="584" as="sourcePoint" />
            <mxPoint x="1025" y="584" as="targetPoint" />
            <Array as="points" />
          </mxGeometry>
        </mxCell>
        <mxCell id="XZiMIYnPhVow6Gjofia4-33" value="Hóa Đơn" style="text;html=1;align=center;verticalAlign=middle;resizable=0;points=[];autosize=1;strokeColor=none;fillColor=none;fontSize=21;" vertex="1" parent="1">
          <mxGeometry x="1118" y="561" width="103" height="37" as="geometry" />
        </mxCell>
        <mxCell id="XZiMIYnPhVow6Gjofia4-36" value="" style="endArrow=none;html=1;rounded=0;fontSize=21;" edge="1" parent="1" target="XZiMIYnPhVow6Gjofia4-35">
          <mxGeometry width="50" height="50" relative="1" as="geometry">
            <mxPoint x="1279" y="531" as="sourcePoint" />
            <mxPoint x="1021" y="531" as="targetPoint" />
          </mxGeometry>
        </mxCell>
        <mxCell id="XZiMIYnPhVow6Gjofia4-35" value="Thông Tin Phản Hồi" style="text;html=1;align=center;verticalAlign=middle;resizable=0;points=[];autosize=1;strokeColor=none;fillColor=none;fontSize=21;" vertex="1" parent="1">
          <mxGeometry x="1061" y="515" width="204" height="37" as="geometry" />
        </mxCell>
        <mxCell id="XZiMIYnPhVow6Gjofia4-37" value="" style="endArrow=none;html=1;rounded=0;fontSize=21;exitX=0;exitY=1;exitDx=0;exitDy=0;" edge="1" parent="1" source="XZiMIYnPhVow6Gjofia4-10">
          <mxGeometry width="50" height="50" relative="1" as="geometry">
            <mxPoint x="1323" y="594" as="sourcePoint" />
            <mxPoint x="1271" y="629" as="targetPoint" />
            <Array as="points">
              <mxPoint x="1323" y="629" />
            </Array>
          </mxGeometry>
        </mxCell>
        <mxCell id="XZiMIYnPhVow6Gjofia4-32" value="Thông Tin Sách Mới" style="text;html=1;align=center;verticalAlign=middle;resizable=0;points=[];autosize=1;strokeColor=none;fillColor=none;fontSize=21;" vertex="1" parent="1">
          <mxGeometry x="1068" y="607" width="207" height="37" as="geometry" />
        </mxCell>
        <mxCell id="XZiMIYnPhVow6Gjofia4-38" value="" style="endArrow=none;html=1;rounded=0;fontSize=21;exitX=1;exitY=0;exitDx=0;exitDy=0;" edge="1" parent="1" source="XZiMIYnPhVow6Gjofia4-1" target="XZiMIYnPhVow6Gjofia4-31">
          <mxGeometry width="50" height="50" relative="1" as="geometry">
            <mxPoint x="1029" y="381" as="sourcePoint" />
            <mxPoint x="1455" y="464" as="targetPoint" />
            <Array as="points" />
          </mxGeometry>
        </mxCell>
        <mxCell id="XZiMIYnPhVow6Gjofia4-31" value="Phản Hồi" style="text;html=1;align=center;verticalAlign=middle;resizable=0;points=[];autosize=1;strokeColor=none;fillColor=none;fontSize=21;" vertex="1" parent="1">
          <mxGeometry x="1195" y="363" width="104" height="37" as="geometry" />
        </mxCell>
        <mxCell id="XZiMIYnPhVow6Gjofia4-40" value="" style="endArrow=none;html=1;rounded=0;fontSize=21;exitX=1;exitY=0.25;exitDx=0;exitDy=0;" edge="1" parent="1" source="XZiMIYnPhVow6Gjofia4-1">
          <mxGeometry width="50" height="50" relative="1" as="geometry">
            <mxPoint x="1029" y="464" as="sourcePoint" />
            <mxPoint x="1134" y="464" as="targetPoint" />
          </mxGeometry>
        </mxCell>
        <mxCell id="XZiMIYnPhVow6Gjofia4-39" value="Đơn Đặt hàng" style="text;html=1;align=center;verticalAlign=middle;resizable=0;points=[];autosize=1;strokeColor=none;fillColor=none;fontSize=21;" vertex="1" parent="1">
          <mxGeometry x="1132" y="439" width="150" height="37" as="geometry" />
        </mxCell>
        <mxCell id="XZiMIYnPhVow6Gjofia4-42" value="" style="endArrow=none;html=1;rounded=0;fontSize=21;exitX=0.25;exitY=1;exitDx=0;exitDy=0;" edge="1" parent="1" source="XZiMIYnPhVow6Gjofia4-1">
          <mxGeometry width="50" height="50" relative="1" as="geometry">
            <mxPoint x="699" y="711" as="sourcePoint" />
            <mxPoint x="703" y="786" as="targetPoint" />
          </mxGeometry>
        </mxCell>
        <mxCell id="XZiMIYnPhVow6Gjofia4-41" value="Báo Cáo" style="text;html=1;align=center;verticalAlign=middle;resizable=0;points=[];autosize=1;strokeColor=none;fillColor=none;fontSize=21;" vertex="1" parent="1">
          <mxGeometry x="657" y="779" width="100" height="37" as="geometry" />
        </mxCell>
        <mxCell id="XZiMIYnPhVow6Gjofia4-44" value="" style="endArrow=none;html=1;rounded=0;fontSize=21;exitX=0.815;exitY=0.085;exitDx=0;exitDy=0;exitPerimeter=0;" edge="1" parent="1" source="XZiMIYnPhVow6Gjofia4-11">
          <mxGeometry width="50" height="50" relative="1" as="geometry">
            <mxPoint x="863" y="892" as="sourcePoint" />
            <mxPoint x="898" y="808" as="targetPoint" />
            <Array as="points" />
          </mxGeometry>
        </mxCell>
        <mxCell id="XZiMIYnPhVow6Gjofia4-43" value="Yêu Cầu Báo Cáo" style="text;html=1;align=center;verticalAlign=middle;resizable=0;points=[];autosize=1;strokeColor=none;fillColor=none;fontSize=21;" vertex="1" parent="1">
          <mxGeometry x="818" y="779" width="187" height="37" as="geometry" />
        </mxCell>
        <mxCell id="XZiMIYnPhVow6Gjofia4-45" value="" style="endArrow=none;html=1;rounded=0;fontSize=21;exitX=0;exitY=0;exitDx=0;exitDy=0;" edge="1" parent="1" source="XZiMIYnPhVow6Gjofia4-1" target="XZiMIYnPhVow6Gjofia4-30">
          <mxGeometry width="50" height="50" relative="1" as="geometry">
            <mxPoint x="589" y="381" as="sourcePoint" />
            <mxPoint x="228" y="477" as="targetPoint" />
            <Array as="points" />
          </mxGeometry>
        </mxCell>
        <mxCell id="XZiMIYnPhVow6Gjofia4-30" value="Biên Bản Vi Phạm" style="text;html=1;align=center;verticalAlign=middle;resizable=0;points=[];autosize=1;strokeColor=none;fillColor=none;fontSize=21;" vertex="1" parent="1">
          <mxGeometry x="314" y="363" width="188" height="37" as="geometry" />
        </mxCell>
        <mxCell id="XZiMIYnPhVow6Gjofia4-47" value="" style="endArrow=none;html=1;rounded=0;fontSize=21;exitX=0;exitY=1;exitDx=0;exitDy=0;" edge="1" parent="1" source="XZiMIYnPhVow6Gjofia4-1">
          <mxGeometry width="50" height="50" relative="1" as="geometry">
            <mxPoint x="589" y="711" as="sourcePoint" />
            <mxPoint x="492" y="711" as="targetPoint" />
            <Array as="points">
              <mxPoint x="468" y="711" />
            </Array>
          </mxGeometry>
        </mxCell>
        <mxCell id="XZiMIYnPhVow6Gjofia4-46" value="Thông Tin Phản Hồi" style="text;html=1;align=center;verticalAlign=middle;resizable=0;points=[];autosize=1;strokeColor=none;fillColor=none;fontSize=21;" vertex="1" parent="1">
          <mxGeometry x="277" y="688" width="204" height="37" as="geometry" />
        </mxCell>
        <mxCell id="XZiMIYnPhVow6Gjofia4-49" value="" style="endArrow=none;html=1;rounded=0;fontSize=21;exitX=0.977;exitY=0.304;exitDx=0;exitDy=0;exitPerimeter=0;entryX=0.013;entryY=0.838;entryDx=0;entryDy=0;entryPerimeter=0;" edge="1" parent="1" source="XZiMIYnPhVow6Gjofia4-9" target="XZiMIYnPhVow6Gjofia4-48">
          <mxGeometry width="50" height="50" relative="1" as="geometry">
            <mxPoint x="399" y="512" as="sourcePoint" />
            <mxPoint x="589" y="464" as="targetPoint" />
          </mxGeometry>
        </mxCell>
        <mxCell id="XZiMIYnPhVow6Gjofia4-48" value="Phiếu Yêu Cầu" style="text;html=1;align=center;verticalAlign=middle;resizable=0;points=[];autosize=1;strokeColor=none;fillColor=none;fontSize=21;" vertex="1" parent="1">
          <mxGeometry x="402" y="467" width="159" height="37" as="geometry" />
        </mxCell>
        <mxCell id="XZiMIYnPhVow6Gjofia4-52" value="" style="endArrow=none;html=1;rounded=0;fontSize=21;entryX=0;entryY=0.5;entryDx=0;entryDy=0;exitX=1;exitY=0.5;exitDx=0;exitDy=0;" edge="1" parent="1" source="XZiMIYnPhVow6Gjofia4-9" target="XZiMIYnPhVow6Gjofia4-51">
          <mxGeometry width="50" height="50" relative="1" as="geometry">
            <mxPoint x="359" y="537" as="sourcePoint" />
            <mxPoint x="589" y="546" as="targetPoint" />
          </mxGeometry>
        </mxCell>
        <mxCell id="XZiMIYnPhVow6Gjofia4-51" value="Phiếu Mượn" style="text;html=1;align=center;verticalAlign=middle;resizable=0;points=[];autosize=1;strokeColor=none;fillColor=none;fontSize=21;" vertex="1" parent="1">
          <mxGeometry x="402" y="524" width="135" height="37" as="geometry" />
        </mxCell>
        <mxCell id="XZiMIYnPhVow6Gjofia4-55" value="" style="endArrow=none;html=1;rounded=0;fontSize=21;exitX=0.985;exitY=0.721;exitDx=0;exitDy=0;exitPerimeter=0;" edge="1" parent="1" source="XZiMIYnPhVow6Gjofia4-9" target="XZiMIYnPhVow6Gjofia4-54">
          <mxGeometry width="50" height="50" relative="1" as="geometry">
            <mxPoint x="355" y="565" as="sourcePoint" />
            <mxPoint x="593" y="629" as="targetPoint" />
          </mxGeometry>
        </mxCell>
        <mxCell id="XZiMIYnPhVow6Gjofia4-54" value="Phiếu Trả" style="text;html=1;align=center;verticalAlign=middle;resizable=0;points=[];autosize=1;strokeColor=none;fillColor=none;fontSize=21;" vertex="1" parent="1">
          <mxGeometry x="410" y="581" width="108" height="37" as="geometry" />
        </mxCell>
      </root>
    </mxGraphModel>
  </diagram>
</mxfile>
